<svg id="my-svg" width="100%" xmlns="http://www.w3.org/2000/svg" xmlns:xlink="http://www.w3.org/1999/xlink" class="flowchart" style="max-width: 1014.25px; background-color: transparent;" viewBox="0 0 1014.25 1419.1875" role="graphics-document document" aria-roledescription="flowchart-v2"><style>#my-svg{font-family:"trebuchet ms",verdana,arial,sans-serif;font-size:14px;fill:#333;}@keyframes edge-animation-frame{from{stroke-dashoffset:0;}}@keyframes dash{to{stroke-dashoffset:0;}}#my-svg .edge-animation-slow{stroke-dasharray:9,5!important;stroke-dashoffset:900;animation:dash 50s linear infinite;stroke-linecap:round;}#my-svg .edge-animation-fast{stroke-dasharray:9,5!important;stroke-dashoffset:900;animation:dash 20s linear infinite;stroke-linecap:round;}#my-svg .error-icon{fill:#552222;}#my-svg .error-text{fill:#552222;stroke:#552222;}#my-svg .edge-thickness-normal{stroke-width:1px;}#my-svg .edge-thickness-thick{stroke-width:3.5px;}#my-svg .edge-pattern-solid{stroke-dasharray:0;}#my-svg .edge-thickness-invisible{stroke-width:0;fill:none;}#my-svg .edge-pattern-dashed{stroke-dasharray:3;}#my-svg .edge-pattern-dotted{stroke-dasharray:2;}#my-svg .marker{fill:#333333;stroke:#333333;}#my-svg .marker.cross{stroke:#333333;}#my-svg svg{font-family:"trebuchet ms",verdana,arial,sans-serif;font-size:14px;}#my-svg p{margin:0;}#my-svg .label{font-family:"trebuchet ms",verdana,arial,sans-serif;color:#333;}#my-svg .cluster-label text{fill:#333;}#my-svg .cluster-label span{color:#333;}#my-svg .cluster-label span p{background-color:transparent;}#my-svg .label text,#my-svg span{fill:#333;color:#333;}#my-svg .node rect,#my-svg .node circle,#my-svg .node ellipse,#my-svg .node polygon,#my-svg .node path{fill:#ECECFF;stroke:#9370DB;stroke-width:1px;}#my-svg .rough-node .label text,#my-svg .node .label text,#my-svg .image-shape .label,#my-svg .icon-shape .label{text-anchor:middle;}#my-svg .node .katex path{fill:#000;stroke:#000;stroke-width:1px;}#my-svg .rough-node .label,#my-svg .node .label,#my-svg .image-shape .label,#my-svg .icon-shape .label{text-align:center;}#my-svg .node.clickable{cursor:pointer;}#my-svg .root .anchor path{fill:#333333!important;stroke-width:0;stroke:#333333;}#my-svg .arrowheadPath{fill:#333333;}#my-svg .edgePath .path{stroke:#333333;stroke-width:1px;}#my-svg .flowchart-link{stroke:#333333;fill:none;}#my-svg .edgeLabel{background-color:rgba(232,232,232, 0.8);text-align:center;}#my-svg .edgeLabel p{background-color:rgba(232,232,232, 0.8);}#my-svg .edgeLabel rect{opacity:0.5;background-color:rgba(232,232,232, 0.8);fill:rgba(232,232,232, 0.8);}#my-svg .labelBkg{background-color:rgba(232, 232, 232, 0.5);}#my-svg .cluster rect{fill:#ffffde;stroke:#aaaa33;stroke-width:1px;}#my-svg .cluster text{fill:#333;}#my-svg .cluster span{color:#333;}#my-svg div.mermaidTooltip{position:absolute;text-align:center;max-width:200px;padding:2px;font-family:"trebuchet ms",verdana,arial,sans-serif;font-size:12px;background:hsl(80, 100%, 96.2745098039%);border:1px solid #aaaa33;border-radius:2px;pointer-events:none;z-index:100;}#my-svg .flowchartTitleText{text-anchor:middle;font-size:18px;fill:#333;}#my-svg rect.text{fill:none;stroke-width:0;}#my-svg .icon-shape,#my-svg .image-shape{background-color:rgba(232,232,232, 0.8);text-align:center;}#my-svg .icon-shape p,#my-svg .image-shape p{background-color:rgba(232,232,232, 0.8);padding:2px;}#my-svg .icon-shape .label rect,#my-svg .image-shape .label rect{opacity:0.5;background-color:rgba(232,232,232, 0.8);fill:rgba(232,232,232, 0.8);}#my-svg .label-icon{display:inline-block;height:1em;overflow:visible;vertical-align:-0.125em;}#my-svg .node .label-icon path{fill:currentColor;stroke:revert;stroke-width:revert;}#my-svg .node .neo-node{stroke:#9370DB;}#my-svg [data-look="neo"].node rect,#my-svg [data-look="neo"].cluster rect,#my-svg [data-look="neo"].node polygon{stroke:#9370DB;filter:drop-shadow(1px 2px 2px rgba(185, 185, 185, 1));}#my-svg [data-look="neo"].node path{stroke:#9370DB;stroke-width:1px;}#my-svg [data-look="neo"].node .outer-path{filter:drop-shadow(1px 2px 2px rgba(185, 185, 185, 1));}#my-svg [data-look="neo"].node .neo-line path{stroke:#9370DB;filter:none;}#my-svg [data-look="neo"].node circle{stroke:#9370DB;filter:drop-shadow(1px 2px 2px rgba(185, 185, 185, 1));}#my-svg [data-look="neo"].node circle .state-start{fill:#000000;}#my-svg [data-look="neo"].icon-shape .icon{fill:#9370DB;filter:drop-shadow(1px 2px 2px rgba(185, 185, 185, 1));}#my-svg [data-look="neo"].icon-shape .icon-neo path{stroke:#9370DB;filter:drop-shadow(1px 2px 2px rgba(185, 185, 185, 1));}#my-svg :root{--mermaid-font-family:"trebuchet ms",verdana,arial,sans-serif;}</style><g><marker id="my-svg_flowchart-v2-pointEnd" class="marker flowchart-v2" viewBox="0 0 10 10" refX="5" refY="5" markerUnits="userSpaceOnUse" markerWidth="8" markerHeight="8" orient="auto"><path d="M 0 0 L 10 5 L 0 10 z" class="arrowMarkerPath" style="stroke-width: 1; stroke-dasharray: 1, 0;"/></marker><marker id="my-svg_flowchart-v2-pointStart" class="marker flowchart-v2" viewBox="0 0 10 10" refX="4.5" refY="5" markerUnits="userSpaceOnUse" markerWidth="8" markerHeight="8" orient="auto"><path d="M 0 5 L 10 10 L 10 0 z" class="arrowMarkerPath" style="stroke-width: 1; stroke-dasharray: 1, 0;"/></marker><marker id="my-svg_flowchart-v2-pointEnd-margin" class="marker flowchart-v2" viewBox="0 0 11.5 14" refX="11.5" refY="7" markerUnits="userSpaceOnUse" markerWidth="10.5" markerHeight="14" orient="auto"><path d="M 0 0 L 11.5 7 L 0 14 z" class="arrowMarkerPath" style="stroke-width: 0; stroke-dasharray: 1, 0;"/></marker><marker id="my-svg_flowchart-v2-pointStart-margin" class="marker flowchart-v2" viewBox="0 0 11.5 14" refX="1" refY="7" markerUnits="userSpaceOnUse" markerWidth="11.5" markerHeight="14" orient="auto"><polygon points="0,7 11.5,14 11.5,0" class="arrowMarkerPath" style="stroke-width: 0; stroke-dasharray: 1, 0;"/></marker><marker id="my-svg_flowchart-v2-circleEnd" class="marker flowchart-v2" viewBox="0 0 10 10" refX="11" refY="5" markerUnits="userSpaceOnUse" markerWidth="11" markerHeight="11" orient="auto"><circle cx="5" cy="5" r="5" class="arrowMarkerPath" style="stroke-width: 1; stroke-dasharray: 1, 0;"/></marker><marker id="my-svg_flowchart-v2-circleStart" class="marker flowchart-v2" viewBox="0 0 10 10" refX="-1" refY="5" markerUnits="userSpaceOnUse" markerWidth="11" markerHeight="11" orient="auto"><circle cx="5" cy="5" r="5" class="arrowMarkerPath" style="stroke-width: 1; stroke-dasharray: 1, 0;"/></marker><marker id="my-svg_flowchart-v2-circleEnd-margin" class="marker flowchart-v2" viewBox="0 0 10 10" refY="5" refX="12.25" markerUnits="userSpaceOnUse" markerWidth="14" markerHeight="14" orient="auto"><circle cx="5" cy="5" r="5" class="arrowMarkerPath" style="stroke-width: 0; stroke-dasharray: 1, 0;"/></marker><marker id="my-svg_flowchart-v2-circleStart-margin" class="marker flowchart-v2" viewBox="0 0 10 10" refX="-2" refY="5" markerUnits="userSpaceOnUse" markerWidth="14" markerHeight="14" orient="auto"><circle cx="5" cy="5" r="5" class="arrowMarkerPath" style="stroke-width: 0; stroke-dasharray: 1, 0;"/></marker><marker id="my-svg_flowchart-v2-crossEnd" class="marker cross flowchart-v2" viewBox="0 0 11 11" refX="12" refY="5.2" markerUnits="userSpaceOnUse" markerWidth="11" markerHeight="11" orient="auto"><path d="M 1,1 l 9,9 M 10,1 l -9,9" class="arrowMarkerPath" style="stroke-width: 2; stroke-dasharray: 1, 0;"/></marker><marker id="my-svg_flowchart-v2-crossStart" class="marker cross flowchart-v2" viewBox="0 0 11 11" refX="-1" refY="5.2" markerUnits="userSpaceOnUse" markerWidth="11" markerHeight="11" orient="auto"><path d="M 1,1 l 9,9 M 10,1 l -9,9" class="arrowMarkerPath" style="stroke-width: 2; stroke-dasharray: 1, 0;"/></marker><marker id="my-svg_flowchart-v2-crossEnd-margin" class="marker cross flowchart-v2" viewBox="0 0 15 15" refX="17.7" refY="7.5" markerUnits="userSpaceOnUse" markerWidth="12" markerHeight="12" orient="auto"><path d="M 1,1 L 14,14 M 1,14 L 14,1" class="arrowMarkerPath" style="stroke-width: 2.5;"/></marker><marker id="my-svg_flowchart-v2-crossStart-margin" class="marker cross flowchart-v2" viewBox="0 0 15 15" refX="-3.5" refY="7.5" markerUnits="userSpaceOnUse" markerWidth="12" markerHeight="12" orient="auto"><path d="M 1,1 L 14,14 M 1,14 L 14,1" class="arrowMarkerPath" style="stroke-width: 2.5; stroke-dasharray: 1, 0;"/></marker><g class="root"><g class="clusters"/><g class="edgePaths"><path d="M255.863,44.5L255.78,48.583C255.697,52.667,255.53,60.833,255.447,68.417C255.363,76,255.363,83,255.363,86.5L255.363,90" id="my-svg-L_START_Q1_0" class="edge-thickness-normal edge-pattern-solid edge-thickness-normal edge-pattern-solid flowchart-link" style=";" data-edge="true" data-et="edge" data-id="L_START_Q1_0" data-points="W3sieCI6MjU1Ljg2MzI4MTI1LCJ5Ijo0NC41fSx7IngiOjI1NS4zNjMyODEyNSwieSI6Njl9LHsieCI6MjU1LjM2MzI4MTI1LCJ5Ijo5NH1d" data-look="classic" marker-end="url(#my-svg_flowchart-v2-pointEnd)"/><path d="M211.251,219.544L196.876,232.813C182.501,246.082,153.75,272.619,139.375,299.009C125,325.398,125,351.641,125,364.762L125,377.883" id="my-svg-L_Q1_Q1_YES_0" class="edge-thickness-normal edge-pattern-solid edge-thickness-normal edge-pattern-solid flowchart-link" style=";" data-edge="true" data-et="edge" data-id="L_Q1_Q1_YES_0" data-points="W3sieCI6MjExLjI1MTM4NzMzNzQ2MTI0LCJ5IjoyMTkuNTQ0MzU2MDg3NDYxMjR9LHsieCI6MTI1LCJ5IjoyOTkuMTU2MjV9LHsieCI6MTI1LCJ5IjozODEuODgyODEyNX1d" data-look="classic" marker-end="url(#my-svg_flowchart-v2-pointEnd)"/><path d="M299.475,219.544L313.85,232.813C328.226,246.082,356.976,272.619,371.351,291.138C385.727,309.656,385.727,320.156,385.727,325.406L385.727,330.656" id="my-svg-L_Q1_Q2_0" class="edge-thickness-normal edge-pattern-solid edge-thickness-normal edge-pattern-solid flowchart-link" style=";" data-edge="true" data-et="edge" data-id="L_Q1_Q2_0" data-points="W3sieCI6Mjk5LjQ3NTE3NTE2MjUzODczLCJ5IjoyMTkuNTQ0MzU2MDg3NDYxMjR9LHsieCI6Mzg1LjcyNjU2MjUsInkiOjI5OS4xNTYyNX0seyJ4IjozODUuNzI2NTYyNSwieSI6MzM0LjY1NjI1fV0=" data-look="classic" marker-end="url(#my-svg_flowchart-v2-pointEnd)"/><path d="M340.446,476.829L327.863,490.293C315.279,503.756,290.112,530.683,277.529,555.266C264.945,579.849,264.945,602.089,264.945,613.208L264.945,624.328" id="my-svg-L_Q2_Q2_YES_0" class="edge-thickness-normal edge-pattern-solid edge-thickness-normal edge-pattern-solid flowchart-link" style=";" data-edge="true" data-et="edge" data-id="L_Q2_Q2_YES_0" data-points="W3sieCI6MzQwLjQ0NjMzMTk5OTM5MDYsInkiOjQ3Ni44MjkxNDQ0OTkzOTA2fSx7IngiOjI2NC45NDUzMTI1LCJ5Ijo1NTcuNjA5Mzc1fSx7IngiOjI2NC45NDUzMTI1LCJ5Ijo2MjguMzI4MTI1fV0=" data-look="classic" marker-end="url(#my-svg_flowchart-v2-pointEnd)"/><path d="M431.007,476.829L443.59,490.293C456.174,503.756,481.341,530.683,493.924,549.396C506.508,568.109,506.508,578.609,506.508,583.859L506.508,589.109" id="my-svg-L_Q2_Q3_0" class="edge-thickness-normal edge-pattern-solid edge-thickness-normal edge-pattern-solid flowchart-link" style=";" data-edge="true" data-et="edge" data-id="L_Q2_Q3_0" data-points="W3sieCI6NDMxLjAwNjc5MzAwMDYwOTQsInkiOjQ3Ni44MjkxNDQ0OTkzOTA2fSx7IngiOjUwNi41MDc4MTI1LCJ5Ijo1NTcuNjA5Mzc1fSx7IngiOjUwNi41MDc4MTI1LCJ5Ijo1OTMuMTA5Mzc1fV0=" data-look="classic" marker-end="url(#my-svg_flowchart-v2-pointEnd)"/><path d="M464.273,714.312L450.414,727.268C436.556,740.224,408.838,766.135,394.98,792.267C381.121,818.398,381.121,844.75,381.121,857.926L381.121,871.102" id="my-svg-L_Q3_Q3_YES_0" class="edge-thickness-normal edge-pattern-solid edge-thickness-normal edge-pattern-solid flowchart-link" style=";" data-edge="true" data-et="edge" data-id="L_Q3_Q3_YES_0" data-points="W3sieCI6NDY0LjI3Mjc5NjIxNzYxNjM2LCJ5Ijo3MTQuMzExODU4NzE3NjE2NH0seyJ4IjozODEuMTIxMDkzNzUsInkiOjc5Mi4wNDY4NzV9LHsieCI6MzgxLjEyMTA5Mzc1LCJ5Ijo4NzUuMTAxNTYyNX1d" data-look="classic" marker-end="url(#my-svg_flowchart-v2-pointEnd)"/><path d="M548.743,714.312L562.601,727.268C576.46,740.224,604.177,766.135,618.036,784.341C631.895,802.547,631.895,813.047,631.895,818.297L631.895,823.547" id="my-svg-L_Q3_Q4_0" class="edge-thickness-normal edge-pattern-solid edge-thickness-normal edge-pattern-solid flowchart-link" style=";" data-edge="true" data-et="edge" data-id="L_Q3_Q4_0" data-points="W3sieCI6NTQ4Ljc0MjgyODc4MjM4MzYsInkiOjcxNC4zMTE4NTg3MTc2MTY0fSx7IngiOjYzMS44OTQ1MzEyNSwieSI6NzkyLjA0Njg3NX0seyJ4Ijo2MzEuODk0NTMxMjUsInkiOjgyNy41NDY4NzV9XQ==" data-look="classic" marker-end="url(#my-svg_flowchart-v2-pointEnd)"/><path d="M587.013,970.774L574.785,984.171C562.557,997.568,538.101,1024.362,525.873,1048.637C513.645,1072.911,513.645,1094.667,513.645,1105.544L513.645,1116.422" id="my-svg-L_Q4_Q4_YES_0" class="edge-thickness-normal edge-pattern-solid edge-thickness-normal edge-pattern-solid flowchart-link" style=";" data-edge="true" data-et="edge" data-id="L_Q4_Q4_YES_0" data-points="W3sieCI6NTg3LjAxMjU0NDExMjk1MjgsInkiOjk3MC43NzQyNjI4NjI5NTI4fSx7IngiOjUxMy42NDQ1MzEyNSwieSI6MTA1MS4xNTYyNX0seyJ4Ijo1MTMuNjQ0NTMxMjUsInkiOjExMjAuNDIxODc1fV0=" data-look="classic" marker-end="url(#my-svg_flowchart-v2-pointEnd)"/><path d="M676.777,970.774L689.005,984.171C701.233,997.568,725.689,1024.362,737.917,1043.009C750.145,1061.656,750.145,1072.156,750.145,1077.406L750.145,1082.656" id="my-svg-L_Q4_Q5_0" class="edge-thickness-normal edge-pattern-solid edge-thickness-normal edge-pattern-solid flowchart-link" style=";" data-edge="true" data-et="edge" data-id="L_Q4_Q5_0" data-points="W3sieCI6Njc2Ljc3NjUxODM4NzA0NzIsInkiOjk3MC43NzQyNjI4NjI5NTI4fSx7IngiOjc1MC4xNDQ1MzEyNSwieSI6MTA1MS4xNTYyNX0seyJ4Ijo3NTAuMTQ0NTMxMjUsInkiOjEwODYuNjU2MjV9XQ==" data-look="classic" marker-end="url(#my-svg_flowchart-v2-pointEnd)"/><path d="M706.626,1203.669L691.03,1216.839C675.433,1230.009,644.24,1256.348,628.643,1274.768C613.047,1293.188,613.047,1303.688,613.047,1308.938L613.047,1314.188" id="my-svg-L_Q5_Q5_YES_0" class="edge-thickness-normal edge-pattern-solid edge-thickness-normal edge-pattern-solid flowchart-link" style=";" data-edge="true" data-et="edge" data-id="L_Q5_Q5_YES_0" data-points="W3sieCI6NzA2LjYyNjAzNzczNjI1ODksInkiOjEyMDMuNjY5MDA2NDg2MjU5fSx7IngiOjYxMy4wNDY4NzUsInkiOjEyODIuNjg3NX0seyJ4Ijo2MTMuMDQ2ODc1LCJ5IjoxMzE4LjE4NzV9XQ==" data-look="classic" marker-end="url(#my-svg_flowchart-v2-pointEnd)"/><path d="M793.663,1203.669L809.26,1216.839C824.856,1230.009,856.049,1256.348,871.646,1274.768C887.242,1293.188,887.242,1303.688,887.242,1308.938L887.242,1314.188" id="my-svg-L_Q5_Q6_0" class="edge-thickness-normal edge-pattern-solid edge-thickness-normal edge-pattern-solid flowchart-link" style=";" data-edge="true" data-et="edge" data-id="L_Q5_Q6_0" data-points="W3sieCI6NzkzLjY2MzAyNDc2Mzc0MTEsInkiOjEyMDMuNjY5MDA2NDg2MjU5fSx7IngiOjg4Ny4yNDIxODc1LCJ5IjoxMjgyLjY4NzV9LHsieCI6ODg3LjI0MjE4NzUsInkiOjEzMTguMTg3NX1d" data-look="classic" marker-end="url(#my-svg_flowchart-v2-pointEnd)"/></g><g class="edgeLabels"><g class="edgeLabel"><g class="label" data-id="L_START_Q1_0" transform="translate(0, 0)"><foreignObject width="0" height="0"><div xmlns="http://www.w3.org/1999/xhtml" class="labelBkg" style="display: table-cell; white-space: nowrap; line-height: 1.5; max-width: 200px; text-align: center;"><span class="edgeLabel"></span></div></foreignObject></g></g><g class="edgeLabel" transform="translate(125, 299.15625)"><g class="label" data-id="L_Q1_Q1_YES_0" transform="translate(-9.9140625, -10.5)"><foreignObject width="19.828125" height="21"><div xmlns="http://www.w3.org/1999/xhtml" class="labelBkg" style="display: table-cell; white-space: nowrap; line-height: 1.5; max-width: 200px; text-align: center;"><span class="edgeLabel"><p>Yes</p></span></div></foreignObject></g></g><g class="edgeLabel" transform="translate(385.7265625, 299.15625)"><g class="label" data-id="L_Q1_Q2_0" transform="translate(-8.2265625, -10.5)"><foreignObject width="16.453125" height="21"><div xmlns="http://www.w3.org/1999/xhtml" class="labelBkg" style="display: table-cell; white-space: nowrap; line-height: 1.5; max-width: 200px; text-align: center;"><span class="edgeLabel"><p>No</p></span></div></foreignObject></g></g><g class="edgeLabel" transform="translate(264.9453125, 557.609375)"><g class="label" data-id="L_Q2_Q2_YES_0" transform="translate(-9.9140625, -10.5)"><foreignObject width="19.828125" height="21"><div xmlns="http://www.w3.org/1999/xhtml" class="labelBkg" style="display: table-cell; white-space: nowrap; line-height: 1.5; max-width: 200px; text-align: center;"><span class="edgeLabel"><p>Yes</p></span></div></foreignObject></g></g><g class="edgeLabel" transform="translate(506.5078125, 557.609375)"><g class="label" data-id="L_Q2_Q3_0" transform="translate(-8.2265625, -10.5)"><foreignObject width="16.453125" height="21"><div xmlns="http://www.w3.org/1999/xhtml" class="labelBkg" style="display: table-cell; white-space: nowrap; line-height: 1.5; max-width: 200px; text-align: center;"><span class="edgeLabel"><p>No</p></span></div></foreignObject></g></g><g class="edgeLabel" transform="translate(381.12109375, 792.046875)"><g class="label" data-id="L_Q3_Q3_YES_0" transform="translate(-9.9140625, -10.5)"><foreignObject width="19.828125" height="21"><div xmlns="http://www.w3.org/1999/xhtml" class="labelBkg" style="display: table-cell; white-space: nowrap; line-height: 1.5; max-width: 200px; text-align: center;"><span class="edgeLabel"><p>Yes</p></span></div></foreignObject></g></g><g class="edgeLabel" transform="translate(631.89453125, 792.046875)"><g class="label" data-id="L_Q3_Q4_0" transform="translate(-8.2265625, -10.5)"><foreignObject width="16.453125" height="21"><div xmlns="http://www.w3.org/1999/xhtml" class="labelBkg" style="display: table-cell; white-space: nowrap; line-height: 1.5; max-width: 200px; text-align: center;"><span class="edgeLabel"><p>No</p></span></div></foreignObject></g></g><g class="edgeLabel" transform="translate(513.64453125, 1051.15625)"><g class="label" data-id="L_Q4_Q4_YES_0" transform="translate(-9.9140625, -10.5)"><foreignObject width="19.828125" height="21"><div xmlns="http://www.w3.org/1999/xhtml" class="labelBkg" style="display: table-cell; white-space: nowrap; line-height: 1.5; max-width: 200px; text-align: center;"><span class="edgeLabel"><p>Yes</p></span></div></foreignObject></g></g><g class="edgeLabel" transform="translate(750.14453125, 1051.15625)"><g class="label" data-id="L_Q4_Q5_0" transform="translate(-8.2265625, -10.5)"><foreignObject width="16.453125" height="21"><div xmlns="http://www.w3.org/1999/xhtml" class="labelBkg" style="display: table-cell; white-space: nowrap; line-height: 1.5; max-width: 200px; text-align: center;"><span class="edgeLabel"><p>No</p></span></div></foreignObject></g></g><g class="edgeLabel" transform="translate(613.046875, 1282.6875)"><g class="label" data-id="L_Q5_Q5_YES_0" transform="translate(-9.9140625, -10.5)"><foreignObject width="19.828125" height="21"><div xmlns="http://www.w3.org/1999/xhtml" class="labelBkg" style="display: table-cell; white-space: nowrap; line-height: 1.5; max-width: 200px; text-align: center;"><span class="edgeLabel"><p>Yes</p></span></div></foreignObject></g></g><g class="edgeLabel" transform="translate(887.2421875, 1282.6875)"><g class="label" data-id="L_Q5_Q6_0" transform="translate(-8.2265625, -10.5)"><foreignObject width="16.453125" height="21"><div xmlns="http://www.w3.org/1999/xhtml" class="labelBkg" style="display: table-cell; white-space: nowrap; line-height: 1.5; max-width: 200px; text-align: center;"><span class="edgeLabel"><p>No</p></span></div></foreignObject></g></g></g><g class="nodes"><g class="node default" id="my-svg-flowchart-START-0" data-look="classic" transform="translate(255.36328125, 26)"><g class="basic label-container outer-path"><path d="M-64.078125 -18 C-17.434799350252 -18, 29.208526299496 -18, 64.078125 -18 C64.078125 -18, 64.078125 -18, 64.078125 -18 C64.53215262389375 -17.985440217812886, 64.9861802477875 -17.970880435625773, 65.23138895965283 -17.963017069506055 C65.59579081219141 -17.927863661049006, 65.96019266472999 -17.892710252591954, 66.37991391032111 -17.85222024881843 C66.80917539829998 -17.782820580414565, 67.23843688627885 -17.713420912010697, 67.51898031662469 -17.668064825839178 C67.94933242856028 -17.56983976459986, 68.37968454049586 -17.471614703360544, 68.64390751037112 -17.41130753470253 C68.93135983714738 -17.32599319298339, 69.21881216392364 -17.24067885126425, 69.75007292442517 -17.083003446192034 C70.12643966805487 -16.944497005440265, 70.50280641168457 -16.805990564688496, 70.83293108782874 -16.68450163222839 C71.14069553587399 -16.548263440586737, 71.44845998391924 -16.412025248945085, 71.88803230411605 -16.217439622243546 C72.17645697794467 -16.06696865465198, 72.46488165177327 -15.916497687060414, 72.91104093607088 -15.683736674221011 C73.14286075927228 -15.543206135071822, 73.37468058247369 -15.40267559592263, 73.89775322178987 -15.085585888053133 C74.19687406850034 -14.876932134120665, 74.49599491521082 -14.668278380188198, 74.84411454884189 -14.425445193623219 C75.15697433313153 -14.175947841200733, 75.46983411742119 -13.926450488778249, 75.74623611554019 -13.706027250644421 C76.01741562866812 -13.459749191838377, 76.28859514179604 -13.21347113303233, 76.60041091086275 -12.930288301759097 C76.8856664232481 -12.635738565308118, 77.17092193563343 -12.34118882885714, 77.40312894735568 -12.101416024703706 C77.55840375573644 -11.919021399392774, 77.71367856411719 -11.736626774081842, 78.15109168442453 -11.222816433457204 C78.40686963085841 -10.880097287086096, 78.66264757729228 -10.537378140714987, 78.8412255827452 -10.298099882199057 C78.96965555985189 -10.100796949085506, 79.09808553695859 -9.903494015971955, 79.47069473409623 -9.331066229589453 C79.62361747966003 -9.059536409733797, 79.77654022522383 -8.788006589878142, 80.036912514714 -8.325689224335035 C80.21731941717368 -7.951070431288164, 80.39772631963338 -7.576451638241293, 80.53755221428463 -7.286100176203093 C80.63763558838686 -7.038892307190167, 80.7377189624891 -6.79168443817724, 80.97055659689568 -6.216570979583546 C81.10452620387136 -5.813075868530954, 81.23849581084704 -5.409580757478364, 81.3341463546599 -5.121496559358589 C81.4137422558233 -4.817962891140736, 81.49333815698671 -4.5144292229228835, 81.62682741927283 -4.005376811213661 C81.6716751321748 -3.775093284029494, 81.71652284507678 -3.544809756845328, 81.8473971014601 -2.872798110600833 C81.88462183602199 -2.5840904201941313, 81.92184657058387 -2.2953827297874296, 81.99494903308556 -1.728414466338275 C82.01487799311619 -1.4180048274942156, 82.03480695314683 -1.1075951886501563, 82.06887689161238 -0.576928396289793 C82.06887689161238 -0.2750116014220245, 82.06887689161238 0.026905193445743936, 82.06887689161238 0.5769283962897886 C82.04691364126695 0.9190237488362492, 82.02495039092155 1.2611191013827097, 81.99494903308556 1.7284144663382628 C81.94436724817572 2.1207168015958056, 81.89378546326589 2.513019136853348, 81.8473971014601 2.8727981106008205 C81.78948546823554 3.1701621075809747, 81.73157383501096 3.4675261045611285, 81.62682741927283 4.005376811213657 C81.52201797187219 4.405060658854167, 81.41720852447153 4.804744506494678, 81.3341463546599 5.121496559358577 C81.26057072160968 5.343094643420667, 81.18699508855947 5.564692727482756, 80.97055659689569 6.216570979583534 C80.8606546153068 6.488030998918374, 80.7507526337179 6.759491018253214, 80.53755221428463 7.286100176203088 C80.33927652236524 7.6978238928938785, 80.14100083044585 8.109547609584668, 80.036912514714 8.325689224335031 C79.87238305167737 8.617827946371284, 79.70785358864076 8.909966668407536, 79.47069473409623 9.33106622958945 C79.25684470170397 9.659597306118156, 79.04299466931172 9.988128382646863, 78.84122558274521 10.298099882199049 C78.57677073786034 10.652445282012787, 78.31231589297546 11.006790681826523, 78.15109168442454 11.2228164334572 C77.8678554335906 11.555521850285983, 77.58461918275665 11.888227267114765, 77.40312894735568 12.101416024703695 C77.22015460773073 12.290352052839125, 77.03718026810577 12.479288080974555, 76.60041091086276 12.930288301759093 C76.34277944657605 13.16426238106928, 76.08514798228933 13.398236460379467, 75.7462361155402 13.706027250644409 C75.40536255896909 13.977864840983573, 75.06448900239798 14.249702431322737, 74.84411454884189 14.425445193623217 C74.59494871497958 14.59925249311046, 74.34578288111727 14.773059792597705, 73.89775322178988 15.085585888053126 C73.51053398435445 15.320320465339302, 73.12331474691904 15.555055042625478, 72.91104093607088 15.68373667422101 C72.62361945683863 15.833684275834232, 72.33619797760637 15.983631877447454, 71.88803230411605 16.217439622243543 C71.48440391833438 16.396113935418434, 71.08077553255269 16.57478824859333, 70.83293108782874 16.68450163222839 C70.56146739358907 16.78440278109147, 70.2900036993494 16.884303929954548, 69.75007292442518 17.08300344619203 C69.4654010432573 17.167492566249464, 69.1807291620894 17.251981686306898, 68.64390751037115 17.411307534702527 C68.22384452105565 17.507184170846607, 67.80378153174016 17.603060806990687, 67.5189803166247 17.668064825839174 C67.0772805165613 17.739475424080318, 66.6355807164979 17.810886022321462, 66.37991391032112 17.85222024881843 C65.98198946747448 17.890607541245686, 65.58406502462782 17.92899483367294, 65.23138895965283 17.963017069506055 C64.91026035979989 17.97331503866444, 64.58913175994695 17.98361300782282, 64.078125 18 C64.078125 18, 64.078125 18, 64.078125 18 C29.422636517562275 18, -5.232851964875451 18, -64.078125 18 C-64.5053041988355 17.986301194547217, -64.932483397671 17.97260238909443, -65.23138895965282 17.963017069506055 C-65.5965956106807 17.927786023106655, -65.96180226170857 17.892554976707256, -66.37991391032111 17.85222024881843 C-66.65406170430941 17.807898159534293, -66.92820949829773 17.76357607025016, -67.5189803166247 17.668064825839174 C-67.82025033158378 17.599301910895342, -68.12152034654287 17.53053899595151, -68.64390751037112 17.41130753470253 C-68.97277219169402 17.313702223531834, -69.30163687301692 17.216096912361138, -69.75007292442517 17.083003446192038 C-70.05127857858444 16.97215698114688, -70.35248423274372 16.861310516101724, -70.83293108782874 16.68450163222839 C-71.05298517061928 16.587090217449454, -71.27303925340982 16.48967880267052, -71.88803230411604 16.217439622243546 C-72.09752301862692 16.10814845066843, -72.30701373313778 15.998857279093318, -72.91104093607088 15.683736674221013 C-73.28762882184115 15.455446884791005, -73.66421670761144 15.227157095360996, -73.89775322178987 15.085585888053139 C-74.13652036340991 14.919032266121967, -74.37528750502996 14.752478644190795, -74.84411454884189 14.42544519362322 C-75.18362575087428 14.154694044774901, -75.5231369529067 13.88394289592658, -75.74623611554019 13.706027250644423 C-76.0580474868561 13.422848413292105, -76.36985885817202 13.139669575939784, -76.60041091086275 12.930288301759106 C-76.79238357724188 12.732060762473623, -76.98435624362102 12.533833223188138, -77.40312894735568 12.101416024703703 C-77.63901806240573 11.824327247695027, -77.87490717745577 11.547238470686352, -78.15109168442453 11.222816433457206 C-78.29010133578022 11.036556164680333, -78.42911098713593 10.85029589590346, -78.8412255827452 10.29809988219906 C-79.0837927142509 9.925451629811256, -79.32635984575661 9.552803377423453, -79.47069473409623 9.33106622958946 C-79.62985525929612 9.048460600346235, -79.78901578449602 8.765854971103009, -80.036912514714 8.325689224335036 C-80.1735787022763 8.041898961673956, -80.3102448898386 7.758108699012877, -80.53755221428463 7.286100176203095 C-80.69912391867236 6.887014942589005, -80.86069562306008 6.487929708974915, -80.97055659689568 6.2165709795835475 C-81.08590619852406 5.869156357942057, -81.20125580015244 5.521741736300567, -81.3341463546599 5.121496559358584 C-81.41625899244475 4.808365483642593, -81.4983716302296 4.495234407926601, -81.62682741927281 4.005376811213663 C-81.67452793851336 3.7604447264217393, -81.72222845775393 3.5155126416298152, -81.8473971014601 2.8727981106008347 C-81.90406264185364 2.433311369185173, -81.96072818224717 1.9938246277695113, -81.99494903308556 1.7284144663382852 C-82.01948501306738 1.3462467730348118, -82.0440209930492 0.9640790797313383, -82.06887689161238 0.5769283962897952 C-82.06887689161238 0.31417911967784645, -82.06887689161238 0.05142984306589771, -82.06887689161238 -0.5769283962897864 C-82.05152368564005 -0.8472185865646327, -82.03417047966771 -1.117508776839479, -81.99494903308556 -1.7284144663382603 C-81.94826745781843 -2.0904675457904327, -81.9015858825513 -2.452520625242605, -81.8473971014601 -2.8727981106008262 C-81.79774669106635 -3.127742474354761, -81.74809628067261 -3.3826868381086954, -81.62682741927283 -4.005376811213655 C-81.53818513872301 -4.343408244757507, -81.4495428581732 -4.681439678301358, -81.3341463546599 -5.121496559358575 C-81.21127559112723 -5.4915637223213425, -81.08840482759459 -5.861630885284109, -80.97055659689569 -6.2165709795835244 C-80.82188905696557 -6.583782677502255, -80.67322151703547 -6.950994375420987, -80.53755221428463 -7.286100176203086 C-80.38822345545381 -7.596184539038877, -80.23889469662299 -7.906268901874668, -80.036912514714 -8.32568922433503 C-79.8146385685956 -8.720359123345943, -79.5923646224772 -9.115029022356858, -79.47069473409623 -9.331066229589455 C-79.27343010974975 -9.634117665554182, -79.0761654854033 -9.937169101518911, -78.84122558274521 -10.298099882199054 C-78.68976582243927 -10.501042162740994, -78.53830606213333 -10.703984443282932, -78.15109168442454 -11.2228164334572 C-77.9948575748362 -11.40633790855234, -77.83862346524786 -11.589859383647479, -77.40312894735568 -12.101416024703695 C-77.20466768392735 -12.306343573166204, -77.00620642049901 -12.511271121628711, -76.60041091086276 -12.930288301759086 C-76.26401970670221 -13.235789892954159, -75.92762850254167 -13.541291484149234, -75.7462361155402 -13.706027250644407 C-75.4989283625926 -13.903248602484434, -75.25162060964499 -14.100469954324458, -74.8441145488419 -14.425445193623215 C-74.58914033446555 -14.603304167916308, -74.33416612008921 -14.781163142209401, -73.89775322178988 -15.085585888053124 C-73.66276071187556 -15.22803972853246, -73.42776820196124 -15.370493569011796, -72.91104093607089 -15.683736674221008 C-72.53269432152096 -15.88111986068913, -72.15434770697104 -16.078503047157255, -71.88803230411605 -16.217439622243543 C-71.66039156144457 -16.318209426301504, -71.43275081877307 -16.418979230359465, -70.83293108782874 -16.684501632228386 C-70.50623498704672 -16.80472881726182, -70.17953888626471 -16.924956002295254, -69.75007292442518 -17.08300344619203 C-69.44754344676467 -17.172792607152036, -69.14501396910417 -17.262581768112042, -68.64390751037115 -17.411307534702523 C-68.40774840074467 -17.465209310392556, -68.17158929111817 -17.519111086082592, -67.5189803166247 -17.668064825839174 C-67.28915568504847 -17.70522108995578, -67.05933105347225 -17.742377354072392, -66.37991391032112 -17.85222024881843 C-66.06076610107704 -17.88300805414481, -65.74161829183295 -17.91379585947119, -65.23138895965283 -17.963017069506055 C-64.91033659242953 -17.973312594032382, -64.58928422520623 -17.98360811855871, -64.078125 -18 C-64.078125 -18, -64.078125 -18, -64.078125 -18" stroke="none" stroke-width="0" fill="#DC3545" style="fill:#DC3545 !important;stroke:#A71D2A !important"/><path d="M-64.078125 -18 C-13.637245864955275 -18, 36.80363327008945 -18, 64.078125 -18 M-64.078125 -18 C-20.70699748197982 -18, 22.664130036040362 -18, 64.078125 -18 M64.078125 -18 C64.078125 -18, 64.078125 -18, 64.078125 -18 M64.078125 -18 C64.078125 -18, 64.078125 -18, 64.078125 -18 M64.078125 -18 C64.50738696689479 -17.986234404229418, 64.93664893378957 -17.97246880845883, 65.23138895965283 -17.963017069506055 M64.078125 -18 C64.40539258112763 -17.98950516566094, 64.73266016225527 -17.97901033132188, 65.23138895965283 -17.963017069506055 M65.23138895965283 -17.963017069506055 C65.55653194763141 -17.931650916497414, 65.88167493561 -17.900284763488777, 66.37991391032111 -17.85222024881843 M65.23138895965283 -17.963017069506055 C65.64268509043391 -17.923339826425572, 66.053981221215 -17.88366258334509, 66.37991391032111 -17.85222024881843 M66.37991391032111 -17.85222024881843 C66.77339319551339 -17.78860556946597, 67.16687248070566 -17.724990890113514, 67.51898031662469 -17.668064825839178 M66.37991391032111 -17.85222024881843 C66.66685132333679 -17.805830433114927, 66.95378873635246 -17.759440617411425, 67.51898031662469 -17.668064825839178 M67.51898031662469 -17.668064825839178 C67.94009843411544 -17.57194736357445, 68.36121655160618 -17.475829901309723, 68.64390751037112 -17.41130753470253 M67.51898031662469 -17.668064825839178 C67.95512523124685 -17.56851759518822, 68.39127014586902 -17.468970364537263, 68.64390751037112 -17.41130753470253 M68.64390751037112 -17.41130753470253 C68.9555052819267 -17.31882695171491, 69.2671030534823 -17.22634636872729, 69.75007292442517 -17.083003446192034 M68.64390751037112 -17.41130753470253 C68.92784446925606 -17.327036535720993, 69.211781428141 -17.242765536739455, 69.75007292442517 -17.083003446192034 M69.75007292442517 -17.083003446192034 C70.16823111449729 -16.92911736683356, 70.58638930456941 -16.775231287475084, 70.83293108782874 -16.68450163222839 M69.75007292442517 -17.083003446192034 C70.15674964120207 -16.93334265513978, 70.56342635797895 -16.783681864087523, 70.83293108782874 -16.68450163222839 M70.83293108782874 -16.68450163222839 C71.0449290622802 -16.590656417635206, 71.25692703673165 -16.49681120304202, 71.88803230411605 -16.217439622243546 M70.83293108782874 -16.68450163222839 C71.18142366968725 -16.530234303904773, 71.52991625154574 -16.37596697558116, 71.88803230411605 -16.217439622243546 M71.88803230411605 -16.217439622243546 C72.17573604929335 -16.06734476266759, 72.46343979447064 -15.917249903091639, 72.91104093607088 -15.683736674221011 M71.88803230411605 -16.217439622243546 C72.28328683218044 -16.011235588124965, 72.67854136024481 -15.805031554006383, 72.91104093607088 -15.683736674221011 M72.91104093607088 -15.683736674221011 C73.2996466679249 -15.448161595870328, 73.68825239977895 -15.212586517519645, 73.89775322178987 -15.085585888053133 M72.91104093607088 -15.683736674221011 C73.16565067698112 -15.529390753028308, 73.42026041789134 -15.375044831835604, 73.89775322178987 -15.085585888053133 M73.89775322178987 -15.085585888053133 C74.21317479965207 -14.8655614497165, 74.52859637751426 -14.645537011379867, 74.84411454884189 -14.425445193623219 M73.89775322178987 -15.085585888053133 C74.10426758109764 -14.94153041086256, 74.31078194040542 -14.797474933671987, 74.84411454884189 -14.425445193623219 M74.84411454884189 -14.425445193623219 C75.19940716059027 -14.142108790487358, 75.55469977233865 -13.858772387351495, 75.74623611554019 -13.706027250644421 M74.84411454884189 -14.425445193623219 C75.05298289791108 -14.258878243460732, 75.26185124698029 -14.092311293298245, 75.74623611554019 -13.706027250644421 M75.74623611554019 -13.706027250644421 C76.03239013242863 -13.446149743726725, 76.31854414931709 -13.18627223680903, 76.60041091086275 -12.930288301759097 M75.74623611554019 -13.706027250644421 C75.92035381993803 -13.547898158412313, 76.09447152433586 -13.389769066180202, 76.60041091086275 -12.930288301759097 M76.60041091086275 -12.930288301759097 C76.88730394093022 -12.634047693858614, 77.1741969709977 -12.337807085958133, 77.40312894735568 -12.101416024703706 M76.60041091086275 -12.930288301759097 C76.86399280208735 -12.658118358593976, 77.12757469331194 -12.385948415428855, 77.40312894735568 -12.101416024703706 M77.40312894735568 -12.101416024703706 C77.64023763953547 -11.822894663002522, 77.87734633171527 -11.544373301301336, 78.15109168442453 -11.222816433457204 M77.40312894735568 -12.101416024703706 C77.6645598257009 -11.794324439161018, 77.92599070404611 -11.48723285361833, 78.15109168442453 -11.222816433457204 M78.15109168442453 -11.222816433457204 C78.29461925190382 -11.030502568665339, 78.43814681938312 -10.838188703873472, 78.8412255827452 -10.298099882199057 M78.15109168442453 -11.222816433457204 C78.36309471057808 -10.938751692284459, 78.57509773673162 -10.654686951111714, 78.8412255827452 -10.298099882199057 M78.8412255827452 -10.298099882199057 C78.96754409280499 -10.104040729477855, 79.09386260286476 -9.909981576756653, 79.47069473409623 -9.331066229589453 M78.8412255827452 -10.298099882199057 C78.98673752081665 -10.074554469894869, 79.1322494588881 -9.85100905759068, 79.47069473409623 -9.331066229589453 M79.47069473409623 -9.331066229589453 C79.60606575632318 -9.090701271823077, 79.74143677855014 -8.850336314056701, 80.036912514714 -8.325689224335035 M79.47069473409623 -9.331066229589453 C79.60162023797051 -9.098594739815804, 79.73254574184477 -8.866123250042152, 80.036912514714 -8.325689224335035 M80.036912514714 -8.325689224335035 C80.17182243170818 -8.04554589508685, 80.30673234870234 -7.765402565838664, 80.53755221428463 -7.286100176203093 M80.036912514714 -8.325689224335035 C80.1880510147165 -8.01184689523399, 80.33918951471901 -7.698004566132946, 80.53755221428463 -7.286100176203093 M80.53755221428463 -7.286100176203093 C80.690855534179 -6.907438012145962, 80.84415885407334 -6.5287758480888325, 80.97055659689568 -6.216570979583546 M80.53755221428463 -7.286100176203093 C80.66124167632672 -6.980584813586036, 80.78493113836882 -6.675069450968979, 80.97055659689568 -6.216570979583546 M80.97055659689568 -6.216570979583546 C81.0789555965191 -5.890090463752975, 81.1873545961425 -5.563609947922405, 81.3341463546599 -5.121496559358589 M80.97055659689568 -6.216570979583546 C81.0961338277836 -5.838352368163701, 81.22171105867154 -5.460133756743856, 81.3341463546599 -5.121496559358589 M81.3341463546599 -5.121496559358589 C81.43587081767461 -4.733577094222302, 81.53759528068933 -4.345657629086015, 81.62682741927283 -4.005376811213661 M81.3341463546599 -5.121496559358589 C81.3967697935984 -4.882686245515955, 81.4593932325369 -4.643875931673321, 81.62682741927283 -4.005376811213661 M81.62682741927283 -4.005376811213661 C81.67919659584322 -3.736472157754067, 81.73156577241362 -3.4675675042944736, 81.8473971014601 -2.872798110600833 M81.62682741927283 -4.005376811213661 C81.69492832914467 -3.6556930321541277, 81.76302923901652 -3.3060092530945946, 81.8473971014601 -2.872798110600833 M81.8473971014601 -2.872798110600833 C81.89992142387197 -2.465429838074952, 81.95244574628384 -2.0580615655490715, 81.99494903308556 -1.728414466338275 M81.8473971014601 -2.872798110600833 C81.88474316168235 -2.583149442330748, 81.92208922190461 -2.2935007740606634, 81.99494903308556 -1.728414466338275 M81.99494903308556 -1.728414466338275 C82.01664331745133 -1.3905084760302473, 82.0383376018171 -1.0526024857222198, 82.06887689161238 -0.576928396289793 M81.99494903308556 -1.728414466338275 C82.02404841202149 -1.2751681508153825, 82.05314779095741 -0.8219218352924899, 82.06887689161238 -0.576928396289793 M82.06887689161238 -0.576928396289793 C82.06887689161238 -0.2794165914901368, 82.06887689161238 0.018095213309519353, 82.06887689161238 0.5769283962897886 M82.06887689161238 -0.576928396289793 C82.06887689161238 -0.3450715677308452, 82.06887689161238 -0.1132147391718974, 82.06887689161238 0.5769283962897886 M82.06887689161238 0.5769283962897886 C82.0447170595639 0.9532372819104211, 82.0205572275154 1.3295461675310536, 81.99494903308556 1.7284144663382628 M82.06887689161238 0.5769283962897886 C82.03957164919395 1.033381201722665, 82.01026640677553 1.4898340071555412, 81.99494903308556 1.7284144663382628 M81.99494903308556 1.7284144663382628 C81.95083763429383 2.0705337645859627, 81.9067262355021 2.4126530628336633, 81.8473971014601 2.8727981106008205 M81.99494903308556 1.7284144663382628 C81.93620816908688 2.1839970078163846, 81.87746730508822 2.6395795492945062, 81.8473971014601 2.8727981106008205 M81.8473971014601 2.8727981106008205 C81.79355152541527 3.149283763324541, 81.73970594937043 3.4257694160482615, 81.62682741927283 4.005376811213657 M81.8473971014601 2.8727981106008205 C81.7783866896868 3.227151989701093, 81.70937627791348 3.581505868801366, 81.62682741927283 4.005376811213657 M81.62682741927283 4.005376811213657 C81.53232959007995 4.3657379895443515, 81.43783176088706 4.726099167875047, 81.3341463546599 5.121496559358577 M81.62682741927283 4.005376811213657 C81.55223741705247 4.289820817191358, 81.4776474148321 4.574264823169058, 81.3341463546599 5.121496559358577 M81.3341463546599 5.121496559358577 C81.23740010248649 5.41288085648291, 81.14065385031309 5.704265153607243, 80.97055659689569 6.216570979583534 M81.3341463546599 5.121496559358577 C81.25824344336799 5.350104034683209, 81.18234053207608 5.5787115100078415, 80.97055659689569 6.216570979583534 M80.97055659689569 6.216570979583534 C80.85447719403435 6.503289348893649, 80.73839779117299 6.790007718203763, 80.53755221428463 7.286100176203088 M80.97055659689569 6.216570979583534 C80.85963876811472 6.4905401611228575, 80.74872093933377 6.76450934266218, 80.53755221428463 7.286100176203088 M80.53755221428463 7.286100176203088 C80.4053884784722 7.560541001468524, 80.27322474265978 7.83498182673396, 80.036912514714 8.325689224335031 M80.53755221428463 7.286100176203088 C80.37789975797361 7.617621917748263, 80.21824730166257 7.949143659293437, 80.036912514714 8.325689224335031 M80.036912514714 8.325689224335031 C79.84501682153156 8.666419459126477, 79.65312112834911 9.007149693917924, 79.47069473409623 9.33106622958945 M80.036912514714 8.325689224335031 C79.84639099504274 8.663979474907233, 79.65586947537146 9.002269725479435, 79.47069473409623 9.33106622958945 M79.47069473409623 9.33106622958945 C79.23626595662239 9.691211784730264, 79.00183717914855 10.051357339871076, 78.84122558274521 10.298099882199049 M79.47069473409623 9.33106622958945 C79.25645295129978 9.66019913993871, 79.04221116850334 9.98933205028797, 78.84122558274521 10.298099882199049 M78.84122558274521 10.298099882199049 C78.58847275007281 10.636765651723316, 78.33571991740041 10.975431421247581, 78.15109168442454 11.2228164334572 M78.84122558274521 10.298099882199049 C78.57725093001778 10.651801868268205, 78.31327627729037 11.00550385433736, 78.15109168442454 11.2228164334572 M78.15109168442454 11.2228164334572 C77.98230175124884 11.421086693384664, 77.81351181807312 11.61935695331213, 77.40312894735568 12.101416024703695 M78.15109168442454 11.2228164334572 C77.91300427869456 11.502487447784805, 77.67491687296459 11.782158462112408, 77.40312894735568 12.101416024703695 M77.40312894735568 12.101416024703695 C77.17010961091752 12.34202762081941, 76.93709027447936 12.582639216935126, 76.60041091086276 12.930288301759093 M77.40312894735568 12.101416024703695 C77.22947754181342 12.280725357971622, 77.05582613627115 12.460034691239551, 76.60041091086276 12.930288301759093 M76.60041091086276 12.930288301759093 C76.31937243200487 13.18552001238715, 76.03833395314699 13.440751723015204, 75.7462361155402 13.706027250644409 M76.60041091086276 12.930288301759093 C76.41037083113599 13.102877673981968, 76.22033075140922 13.275467046204845, 75.7462361155402 13.706027250644409 M75.7462361155402 13.706027250644409 C75.39818088802514 13.98359203244908, 75.05012566051008 14.26115681425375, 74.84411454884189 14.425445193623217 M75.7462361155402 13.706027250644409 C75.3926191379761 13.988027380108806, 75.039002160412 14.270027509573204, 74.84411454884189 14.425445193623217 M74.84411454884189 14.425445193623217 C74.4945435930977 14.66929075966758, 74.14497263735352 14.913136325711946, 73.89775322178988 15.085585888053126 M74.84411454884189 14.425445193623217 C74.54468455983869 14.634314591836544, 74.24525457083547 14.84318399004987, 73.89775322178988 15.085585888053126 M73.89775322178988 15.085585888053126 C73.69923192724114 15.20593066344919, 73.50071063269242 15.326275438845254, 72.91104093607088 15.68373667422101 M73.89775322178988 15.085585888053126 C73.63456601101974 15.24513152188171, 73.37137880024962 15.404677155710292, 72.91104093607088 15.68373667422101 M72.91104093607088 15.68373667422101 C72.56574961013872 15.863874937790163, 72.22045828420657 16.044013201359316, 71.88803230411605 16.217439622243543 M72.91104093607088 15.68373667422101 C72.50864113108086 15.893668394734924, 72.10624132609085 16.103600115248838, 71.88803230411605 16.217439622243543 M71.88803230411605 16.217439622243543 C71.58607077630595 16.35110903323461, 71.28410924849584 16.48477844422568, 70.83293108782874 16.68450163222839 M71.88803230411605 16.217439622243543 C71.51753450656092 16.38144800679453, 71.14703670900577 16.54545639134551, 70.83293108782874 16.68450163222839 M70.83293108782874 16.68450163222839 C70.41865967681214 16.836957340965444, 70.00438826579553 16.9894130497025, 69.75007292442518 17.08300344619203 M70.83293108782874 16.68450163222839 C70.57794491944627 16.778338899259438, 70.32295875106381 16.87217616629049, 69.75007292442518 17.08300344619203 M69.75007292442518 17.08300344619203 C69.50745655141216 17.155010712182968, 69.26484017839913 17.227017978173905, 68.64390751037115 17.411307534702527 M69.75007292442518 17.08300344619203 C69.38838645739098 17.190350091076777, 69.02669999035676 17.297696735961527, 68.64390751037115 17.411307534702527 M68.64390751037115 17.411307534702527 C68.33853861089786 17.48100599328901, 68.03316971142455 17.55070445187549, 67.5189803166247 17.668064825839174 M68.64390751037115 17.411307534702527 C68.41853182799885 17.46274806349023, 68.19315614562655 17.514188592277936, 67.5189803166247 17.668064825839174 M67.5189803166247 17.668064825839174 C67.2034757887975 17.71907315112412, 66.88797126097032 17.770081476409068, 66.37991391032112 17.85222024881843 M67.5189803166247 17.668064825839174 C67.28841429352812 17.705340952387218, 67.05784827043152 17.74261707893526, 66.37991391032112 17.85222024881843 M66.37991391032112 17.85222024881843 C66.13967159211342 17.875396136322266, 65.89942927390571 17.898572023826105, 65.23138895965283 17.963017069506055 M66.37991391032112 17.85222024881843 C66.02610195012974 17.886352063096954, 65.67228998993838 17.920483877375478, 65.23138895965283 17.963017069506055 M65.23138895965283 17.963017069506055 C64.81371637192066 17.976411016444253, 64.39604378418848 17.98980496338245, 64.078125 18 M65.23138895965283 17.963017069506055 C64.85801189311508 17.974990545295547, 64.48463482657732 17.986964021085043, 64.078125 18 M64.078125 18 C64.078125 18, 64.078125 18, 64.078125 18 M64.078125 18 C64.078125 18, 64.078125 18, 64.078125 18 M64.078125 18 C19.471977628832597 18, -25.134169742334805 18, -64.078125 18 M64.078125 18 C26.743372835505212 18, -10.591379328989575 18, -64.078125 18 M-64.078125 18 C-64.35412335848582 17.991149269841575, -64.63012171697164 17.98229853968315, -65.23138895965282 17.963017069506055 M-64.078125 18 C-64.52989439790078 17.98551263472511, -64.98166379580154 17.971025269450223, -65.23138895965282 17.963017069506055 M-65.23138895965282 17.963017069506055 C-65.57791536867926 17.929588083586253, -65.92444177770571 17.896159097666455, -66.37991391032111 17.85222024881843 M-65.23138895965282 17.963017069506055 C-65.59461018019061 17.927977555198204, -65.95783140072841 17.89293804089035, -66.37991391032111 17.85222024881843 M-66.37991391032111 17.85222024881843 C-66.76907591320243 17.789303554188987, -67.15823791608373 17.72638685955954, -67.5189803166247 17.668064825839174 M-66.37991391032111 17.85222024881843 C-66.61884808054822 17.813591225138275, -66.85778225077533 17.77496220145812, -67.5189803166247 17.668064825839174 M-67.5189803166247 17.668064825839174 C-67.76170093691006 17.61266542815911, -68.00442155719541 17.55726603047905, -68.64390751037112 17.41130753470253 M-67.5189803166247 17.668064825839174 C-67.87578448347341 17.58662660312074, -68.23258865032211 17.505188380402313, -68.64390751037112 17.41130753470253 M-68.64390751037112 17.41130753470253 C-68.9007752436628 17.335070539787804, -69.1576429769545 17.258833544873077, -69.75007292442517 17.083003446192038 M-68.64390751037112 17.41130753470253 C-68.89286719728375 17.337417606442926, -69.14182688419636 17.263527678183326, -69.75007292442517 17.083003446192038 M-69.75007292442517 17.083003446192038 C-70.10008300909942 16.954196499574156, -70.45009309377367 16.825389552956274, -70.83293108782874 16.68450163222839 M-69.75007292442517 17.083003446192038 C-70.11927434486775 16.94713391060865, -70.48847576531034 16.81126437502526, -70.83293108782874 16.68450163222839 M-70.83293108782874 16.68450163222839 C-71.12425101665869 16.555542941434016, -71.41557094548865 16.426584250639646, -71.88803230411604 16.217439622243546 M-70.83293108782874 16.68450163222839 C-71.2045023026104 16.520018077713015, -71.57607351739205 16.35553452319764, -71.88803230411604 16.217439622243546 M-71.88803230411604 16.217439622243546 C-72.13230441391839 16.090003019023413, -72.37657652372074 15.962566415803277, -72.91104093607088 15.683736674221013 M-71.88803230411604 16.217439622243546 C-72.2657894657171 16.020363953001283, -72.64354662731817 15.823288283759016, -72.91104093607088 15.683736674221013 M-72.91104093607088 15.683736674221013 C-73.11500707533294 15.560091201962265, -73.31897321459502 15.43644572970352, -73.89775322178987 15.085585888053139 M-72.91104093607088 15.683736674221013 C-73.19762685504104 15.510006605975505, -73.48421277401118 15.336276537729997, -73.89775322178987 15.085585888053139 M-73.89775322178987 15.085585888053139 C-74.20285766705129 14.872758234797331, -74.50796211231273 14.659930581541524, -74.84411454884189 14.42544519362322 M-73.89775322178987 15.085585888053139 C-74.1007351842734 14.943994457972156, -74.30371714675695 14.802403027891174, -74.84411454884189 14.42544519362322 M-74.84411454884189 14.42544519362322 C-75.2029258592418 14.139302721949264, -75.56173716964172 13.853160250275307, -75.74623611554019 13.706027250644423 M-74.84411454884189 14.42544519362322 C-75.07208322198353 14.243646243293927, -75.30005189512518 14.061847292964632, -75.74623611554019 13.706027250644423 M-75.74623611554019 13.706027250644423 C-76.07630330218419 13.406268964833549, -76.40637048882817 13.106510679022675, -76.60041091086275 12.930288301759106 M-75.74623611554019 13.706027250644423 C-75.99919057683174 13.476300701707732, -76.25214503812327 13.246574152771043, -76.60041091086275 12.930288301759106 M-76.60041091086275 12.930288301759106 C-76.88700691137714 12.634354401258749, -77.17360291189155 12.338420500758392, -77.40312894735568 12.101416024703703 M-76.60041091086275 12.930288301759106 C-76.8626645951699 12.659489841284062, -77.12491827947706 12.388691380809016, -77.40312894735568 12.101416024703703 M-77.40312894735568 12.101416024703703 C-77.60036812554043 11.86972766278072, -77.79760730372517 11.638039300857738, -78.15109168442453 11.222816433457206 M-77.40312894735568 12.101416024703703 C-77.61002447143217 11.85838476943463, -77.81691999550866 11.615353514165559, -78.15109168442453 11.222816433457206 M-78.15109168442453 11.222816433457206 C-78.31715845273294 11.000302092917762, -78.48322522104135 10.777787752378316, -78.8412255827452 10.29809988219906 M-78.15109168442453 11.222816433457206 C-78.32963457936553 10.983585219828596, -78.50817747430655 10.744354006199988, -78.8412255827452 10.29809988219906 M-78.8412255827452 10.29809988219906 C-79.01184290083371 10.035985864450188, -79.18246021892223 9.773871846701317, -79.47069473409623 9.33106622958946 M-78.8412255827452 10.29809988219906 C-79.06507926695024 9.954200510129287, -79.28893295115527 9.610301138059514, -79.47069473409623 9.33106622958946 M-79.47069473409623 9.33106622958946 C-79.65115691878428 9.010637346898088, -79.83161910347232 8.690208464206718, -80.036912514714 8.325689224335036 M-79.47069473409623 9.33106622958946 C-79.61938235813527 9.067056296853577, -79.7680699821743 8.803046364117693, -80.036912514714 8.325689224335036 M-80.036912514714 8.325689224335036 C-80.14408837476795 8.103136257736997, -80.25126423482187 7.880583291138958, -80.53755221428463 7.286100176203095 M-80.036912514714 8.325689224335036 C-80.22137599919134 7.942646851931558, -80.40583948366869 7.559604479528081, -80.53755221428463 7.286100176203095 M-80.53755221428463 7.286100176203095 C-80.62850128359973 7.061454216614151, -80.71945035291483 6.836808257025208, -80.97055659689568 6.2165709795835475 M-80.53755221428463 7.286100176203095 C-80.70562864126784 6.870948152017894, -80.87370506825106 6.455796127832692, -80.97055659689568 6.2165709795835475 M-80.97055659689568 6.2165709795835475 C-81.11158666646813 5.79181088012143, -81.25261673604058 5.367050780659312, -81.3341463546599 5.121496559358584 M-80.97055659689568 6.2165709795835475 C-81.08926928378152 5.859027280981445, -81.20798197066736 5.501483582379342, -81.3341463546599 5.121496559358584 M-81.3341463546599 5.121496559358584 C-81.42469838197654 4.776182433703301, -81.51525040929319 4.4308683080480185, -81.62682741927281 4.005376811213663 M-81.3341463546599 5.121496559358584 C-81.42489284869136 4.775440847837302, -81.51563934272282 4.429385136316021, -81.62682741927281 4.005376811213663 M-81.62682741927281 4.005376811213663 C-81.67529925595595 3.756484174372066, -81.7237710926391 3.5075915375304683, -81.8473971014601 2.8727981106008347 M-81.62682741927281 4.005376811213663 C-81.68738981492899 3.6944017093860397, -81.74795221058518 3.383426607558416, -81.8473971014601 2.8727981106008347 M-81.8473971014601 2.8727981106008347 C-81.89930677191397 2.4701969572845375, -81.95121644236782 2.0675958039682403, -81.99494903308556 1.7284144663382852 M-81.8473971014601 2.8727981106008347 C-81.90049710134397 2.4609649972825185, -81.95359710122784 2.049131883964202, -81.99494903308556 1.7284144663382852 M-81.99494903308556 1.7284144663382852 C-82.01069196402707 1.4832056094589998, -82.0264348949686 1.2379967525797144, -82.06887689161238 0.5769283962897952 M-81.99494903308556 1.7284144663382852 C-82.01440707354188 1.425339779983559, -82.0338651139982 1.1222650936288328, -82.06887689161238 0.5769283962897952 M-82.06887689161238 0.5769283962897952 C-82.06887689161238 0.3333502614669377, -82.06887689161238 0.08977212664408013, -82.06887689161238 -0.5769283962897864 M-82.06887689161238 0.5769283962897952 C-82.06887689161238 0.33122663310397127, -82.06887689161238 0.08552486991814734, -82.06887689161238 -0.5769283962897864 M-82.06887689161238 -0.5769283962897864 C-82.04404600255238 -0.9636895365322443, -82.01921511349236 -1.3504506767747022, -81.99494903308556 -1.7284144663382603 M-82.06887689161238 -0.5769283962897864 C-82.04342461469427 -0.9733681539972581, -82.01797233777619 -1.3698079117047297, -81.99494903308556 -1.7284144663382603 M-81.99494903308556 -1.7284144663382603 C-81.94812375611082 -2.09158206785754, -81.90129847913609 -2.4547496693768194, -81.8473971014601 -2.8727981106008262 M-81.99494903308556 -1.7284144663382603 C-81.96322044819571 -1.974495105226218, -81.93149186330585 -2.220575744114176, -81.8473971014601 -2.8727981106008262 M-81.8473971014601 -2.8727981106008262 C-81.80048841002522 -3.1136643269635034, -81.75357971859034 -3.35453054332618, -81.62682741927283 -4.005376811213655 M-81.8473971014601 -2.8727981106008262 C-81.7889474755056 -3.1729245865444313, -81.73049784955109 -3.4730510624880364, -81.62682741927283 -4.005376811213655 M-81.62682741927283 -4.005376811213655 C-81.56821723992464 -4.228882826880739, -81.50960706057644 -4.452388842547822, -81.3341463546599 -5.121496559358575 M-81.62682741927283 -4.005376811213655 C-81.52007739798597 -4.412460908132299, -81.41332737669913 -4.8195450050509425, -81.3341463546599 -5.121496559358575 M-81.3341463546599 -5.121496559358575 C-81.23927427353516 -5.407236151892917, -81.14440219241042 -5.692975744427259, -80.97055659689569 -6.2165709795835244 M-81.3341463546599 -5.121496559358575 C-81.20226180071471 -5.518711822891431, -81.07037724676951 -5.915927086424287, -80.97055659689569 -6.2165709795835244 M-80.97055659689569 -6.2165709795835244 C-80.87551262003896 -6.451331439969942, -80.78046864318223 -6.6860919003563595, -80.53755221428463 -7.286100176203086 M-80.97055659689569 -6.2165709795835244 C-80.88073780176633 -6.438425140081316, -80.79091900663697 -6.6602793005791066, -80.53755221428463 -7.286100176203086 M-80.53755221428463 -7.286100176203086 C-80.3977815469387 -7.576336957560095, -80.25801087959277 -7.866573738917102, -80.036912514714 -8.32568922433503 M-80.53755221428463 -7.286100176203086 C-80.39402937053713 -7.5841284321416875, -80.25050652678962 -7.882156688080289, -80.036912514714 -8.32568922433503 M-80.036912514714 -8.32568922433503 C-79.85276584896701 -8.652660276240725, -79.66861918322002 -8.979631328146423, -79.47069473409623 -9.331066229589455 M-80.036912514714 -8.32568922433503 C-79.86766119581645 -8.626212079592106, -79.6984098769189 -8.926734934849183, -79.47069473409623 -9.331066229589455 M-79.47069473409623 -9.331066229589455 C-79.25262523487417 -9.666079540254227, -79.03455573565212 -10.001092850919001, -78.84122558274521 -10.298099882199054 M-79.47069473409623 -9.331066229589455 C-79.2419783755195 -9.682435975305054, -79.01326201694278 -10.033805721020652, -78.84122558274521 -10.298099882199054 M-78.84122558274521 -10.298099882199054 C-78.65660642716131 -10.545472731530412, -78.47198727157739 -10.792845580861771, -78.15109168442454 -11.2228164334572 M-78.84122558274521 -10.298099882199054 C-78.66029339991672 -10.540532523928267, -78.47936121708825 -10.78296516565748, -78.15109168442454 -11.2228164334572 M-78.15109168442454 -11.2228164334572 C-77.99199204739534 -11.409703920137499, -77.83289241036616 -11.596591406817796, -77.40312894735568 -12.101416024703695 M-78.15109168442454 -11.2228164334572 C-77.97006590903963 -11.43545960988274, -77.78904013365472 -11.648102786308279, -77.40312894735568 -12.101416024703695 M-77.40312894735568 -12.101416024703695 C-77.2416955821303 -12.268109228224676, -77.08026221690491 -12.434802431745657, -76.60041091086276 -12.930288301759086 M-77.40312894735568 -12.101416024703695 C-77.15743205124525 -12.355118242028029, -76.91173515513483 -12.608820459352364, -76.60041091086276 -12.930288301759086 M-76.60041091086276 -12.930288301759086 C-76.32826519811871 -13.177443837492248, -76.05611948537467 -13.42459937322541, -75.7462361155402 -13.706027250644407 M-76.60041091086276 -12.930288301759086 C-76.34838475692806 -13.15917178651596, -76.09635860299335 -13.388055271272837, -75.7462361155402 -13.706027250644407 M-75.7462361155402 -13.706027250644407 C-75.54628255669195 -13.865484892838227, -75.34632899784368 -14.024942535032045, -74.8441145488419 -14.425445193623215 M-75.7462361155402 -13.706027250644407 C-75.42693799541361 -13.960659004565544, -75.10763987528702 -14.215290758486681, -74.8441145488419 -14.425445193623215 M-74.8441145488419 -14.425445193623215 C-74.6360847718178 -14.570557760611313, -74.42805499479373 -14.715670327599412, -73.89775322178988 -15.085585888053124 M-74.8441145488419 -14.425445193623215 C-74.60674247929495 -14.59102567366789, -74.369370409748 -14.756606153712566, -73.89775322178988 -15.085585888053124 M-73.89775322178988 -15.085585888053124 C-73.63427616418836 -15.245307228734228, -73.37079910658683 -15.405028569415332, -72.91104093607089 -15.683736674221008 M-73.89775322178988 -15.085585888053124 C-73.58188667295724 -15.277066046193353, -73.26602012412461 -15.468546204333581, -72.91104093607089 -15.683736674221008 M-72.91104093607089 -15.683736674221008 C-72.696425877217 -15.795701212957582, -72.48181081836309 -15.907665751694156, -71.88803230411605 -16.217439622243543 M-72.91104093607089 -15.683736674221008 C-72.53897452222137 -15.877843484006391, -72.16690810837184 -16.071950293791772, -71.88803230411605 -16.217439622243543 M-71.88803230411605 -16.217439622243543 C-71.46984176249151 -16.402560169839063, -71.05165122086699 -16.58768071743458, -70.83293108782874 -16.684501632228386 M-71.88803230411605 -16.217439622243543 C-71.6058032220101 -16.342374064863584, -71.32357413990415 -16.467308507483626, -70.83293108782874 -16.684501632228386 M-70.83293108782874 -16.684501632228386 C-70.47167901214335 -16.81744573545819, -70.11042693645797 -16.950389838687993, -69.75007292442518 -17.08300344619203 M-70.83293108782874 -16.684501632228386 C-70.43486088026553 -16.83099514833231, -70.03679067270232 -16.97748866443623, -69.75007292442518 -17.08300344619203 M-69.75007292442518 -17.08300344619203 C-69.41887141179652 -17.181302316628, -69.08766989916786 -17.27960118706397, -68.64390751037115 -17.411307534702523 M-69.75007292442518 -17.08300344619203 C-69.36517554387713 -17.197238968371114, -68.98027816332907 -17.3114744905502, -68.64390751037115 -17.411307534702523 M-68.64390751037115 -17.411307534702523 C-68.22746509161755 -17.506357799242284, -67.81102267286394 -17.601408063782042, -67.5189803166247 -17.668064825839174 M-68.64390751037115 -17.411307534702523 C-68.26054642041962 -17.498807201819055, -67.87718533046808 -17.58630686893559, -67.5189803166247 -17.668064825839174 M-67.5189803166247 -17.668064825839174 C-67.18411979484293 -17.72220247811872, -66.84925927306115 -17.77634013039827, -66.37991391032112 -17.85222024881843 M-67.5189803166247 -17.668064825839174 C-67.19161145818026 -17.72099128408906, -66.8642425997358 -17.773917742338945, -66.37991391032112 -17.85222024881843 M-66.37991391032112 -17.85222024881843 C-66.07793213813486 -17.88135206719502, -65.77595036594859 -17.910483885571615, -65.23138895965283 -17.963017069506055 M-66.37991391032112 -17.85222024881843 C-66.07039841615905 -17.882078836293402, -65.76088292199698 -17.911937423768375, -65.23138895965283 -17.963017069506055 M-65.23138895965283 -17.963017069506055 C-64.95546414092206 -17.97186544138767, -64.67953932219127 -17.98071381326929, -64.078125 -18 M-65.23138895965283 -17.963017069506055 C-64.85947753697923 -17.97494354494953, -64.48756611430561 -17.986870020393003, -64.078125 -18 M-64.078125 -18 C-64.078125 -18, -64.078125 -18, -64.078125 -18 M-64.078125 -18 C-64.078125 -18, -64.078125 -18, -64.078125 -18" stroke="#A71D2A" stroke-width="1.3" fill="none" stroke-dasharray="0 0" style="fill:#DC3545 !important;stroke:#A71D2A !important"/></g><g class="label" style="color:#fff !important" transform="translate(-70.078125, -10.5)"><rect/><foreignObject width="140.15625" height="21"><div style="color: rgb(255, 255, 255) !important; display: table-cell; white-space: nowrap; line-height: 1.5; max-width: 200px; text-align: center;" xmlns="http://www.w3.org/1999/xhtml"><span style="color:#fff !important" class="nodeLabel"><p>Quality Drop Detected</p></span></div></foreignObject></g></g><g class="node default" id="my-svg-flowchart-Q1-1" data-look="classic" transform="translate(255.36328125, 178.828125)"><polygon points="84.828125,0 169.65625,-84.828125 84.828125,-169.65625 0,-84.828125" class="label-container" transform="translate(-84.328125, 84.828125)" style="fill:#FFC107 !important;stroke:#CC9A06 !important"/><g class="label" style="color:#000 !important" transform="translate(-48.828125, -21)"><rect/><foreignObject width="97.65625" height="42"><div style="color: rgb(0, 0, 0) !important; display: table-cell; white-space: nowrap; line-height: 1.5; max-width: 200px; text-align: center;" xmlns="http://www.w3.org/1999/xhtml"><span style="color:#000 !important" class="nodeLabel"><p>Intent accuracy<br />dropped?</p></span></div></foreignObject></g></g><g class="node default" id="my-svg-flowchart-Q1_YES-2" data-look="classic" transform="translate(125, 428.3828125)"><rect class="basic label-container" style="fill:#7B68EE !important;stroke:#5A4ACB !important" x="-117" y="-46.5" width="234" height="93"/><g class="label" style="color:#fff !important" transform="translate(-87, -31.5)"><rect/><foreignObject width="174" height="63"><div style="color: rgb(255, 255, 255) !important; display: table-cell; white-space: nowrap; line-height: 1.5; max-width: 200px; text-align: center;" xmlns="http://www.w3.org/1999/xhtml"><span style="color:#fff !important" class="nodeLabel"><p>Root cause:<br />Intent classification prompt<br />or model drift</p></span></div></foreignObject></g></g><g class="node default" id="my-svg-flowchart-Q2-3" data-look="classic" transform="translate(385.7265625, 428.3828125)"><polygon points="93.7265625,0 187.453125,-93.7265625 93.7265625,-187.453125 0,-93.7265625" class="label-container" transform="translate(-93.2265625, 93.7265625)" style="fill:#FFC107 !important;stroke:#CC9A06 !important"/><g class="label" style="color:#000 !important" transform="translate(-57.7265625, -21)"><rect/><foreignObject width="115.453125" height="42"><div style="color: rgb(0, 0, 0) !important; display: table-cell; white-space: nowrap; line-height: 1.5; max-width: 200px; text-align: center;" xmlns="http://www.w3.org/1999/xhtml"><span style="color:#000 !important" class="nodeLabel"><p>Grounding failures<br />increased?</p></span></div></foreignObject></g></g><g class="node default" id="my-svg-flowchart-Q2_YES-4" data-look="classic" transform="translate(264.9453125, 674.828125)"><rect class="basic label-container" style="fill:#28A745 !important;stroke:#1E7E34 !important" x="-109.84375" y="-46.5" width="219.6875" height="93"/><g class="label" style="color:#fff !important" transform="translate(-79.84375, -31.5)"><rect/><foreignObject width="159.6875" height="63"><div style="color: rgb(255, 255, 255) !important; display: table-cell; white-space: nowrap; line-height: 1.5; max-width: 200px; text-align: center;" xmlns="http://www.w3.org/1999/xhtml"><span style="color:#fff !important" class="nodeLabel"><p>Root cause:<br />LLM hallucinating despite<br />having correct tool data</p></span></div></foreignObject></g></g><g class="node default" id="my-svg-flowchart-Q3-5" data-look="classic" transform="translate(506.5078125, 674.828125)"><polygon points="81.71875,0 163.4375,-81.71875 81.71875,-163.4375 0,-81.71875" class="label-container" transform="translate(-81.21875, 81.71875)" style="fill:#FFC107 !important;stroke:#CC9A06 !important"/><g class="label" style="color:#000 !important" transform="translate(-45.71875, -21)"><rect/><foreignObject width="91.4375" height="42"><div style="color: rgb(0, 0, 0) !important; display: table-cell; white-space: nowrap; line-height: 1.5; max-width: 200px; text-align: center;" xmlns="http://www.w3.org/1999/xhtml"><span style="color:#000 !important" class="nodeLabel"><p>Tool error rate<br />increased?</p></span></div></foreignObject></g></g><g class="node default" id="my-svg-flowchart-Q3_YES-6" data-look="classic" transform="translate(381.12109375, 921.6015625)"><rect class="basic label-container" style="fill:#336791 !important;stroke:#264E6D !important" x="-106.71875" y="-46.5" width="213.4375" height="93"/><g class="label" style="color:#fff !important" transform="translate(-76.71875, -31.5)"><rect/><foreignObject width="153.4375" height="63"><div style="color: rgb(255, 255, 255) !important; display: table-cell; white-space: nowrap; line-height: 1.5; max-width: 200px; text-align: center;" xmlns="http://www.w3.org/1999/xhtml"><span style="color:#fff !important" class="nodeLabel"><p>Root cause:<br />Database or Tool Service<br />issue (infra problem)</p></span></div></foreignObject></g></g><g class="node default" id="my-svg-flowchart-Q4-7" data-look="classic" transform="translate(631.89453125, 921.6015625)"><polygon points="94.0546875,0 188.109375,-94.0546875 94.0546875,-188.109375 0,-94.0546875" class="label-container" transform="translate(-93.5546875, 94.0546875)" style="fill:#FFC107 !important;stroke:#CC9A06 !important"/><g class="label" style="color:#000 !important" transform="translate(-58.0546875, -21)"><rect/><foreignObject width="116.109375" height="42"><div style="color: rgb(0, 0, 0) !important; display: table-cell; white-space: nowrap; line-height: 1.5; max-width: 200px; text-align: center;" xmlns="http://www.w3.org/1999/xhtml"><span style="color:#000 !important" class="nodeLabel"><p>Latency increased<br />but quality stable?</p></span></div></foreignObject></g></g><g class="node default" id="my-svg-flowchart-Q4_YES-8" data-look="classic" transform="translate(513.64453125, 1166.921875)"><rect class="basic label-container" style="fill:#F5A623 !important;stroke:#C47D0E !important" x="-106.234375" y="-46.5" width="212.46875" height="93"/><g class="label" style="color:#fff !important" transform="translate(-76.234375, -31.5)"><rect/><foreignObject width="152.46875" height="63"><div style="color: rgb(255, 255, 255) !important; display: table-cell; white-space: nowrap; line-height: 1.5; max-width: 200px; text-align: center;" xmlns="http://www.w3.org/1999/xhtml"><span style="color:#fff !important" class="nodeLabel"><p>Root cause:<br />API throttling or<br />infrastructure slowdown</p></span></div></foreignObject></g></g><g class="node default" id="my-svg-flowchart-Q5-9" data-look="classic" transform="translate(750.14453125, 1166.921875)"><polygon points="80.265625,0 160.53125,-80.265625 80.265625,-160.53125 0,-80.265625" class="label-container" transform="translate(-79.765625, 80.265625)" style="fill:#FFC107 !important;stroke:#CC9A06 !important"/><g class="label" style="color:#000 !important" transform="translate(-44.265625, -21)"><rect/><foreignObject width="88.53125" height="42"><div style="color: rgb(0, 0, 0) !important; display: table-cell; white-space: nowrap; line-height: 1.5; max-width: 200px; text-align: center;" xmlns="http://www.w3.org/1999/xhtml"><span style="color:#000 !important" class="nodeLabel"><p>Reflexion rate<br />spiked?</p></span></div></foreignObject></g></g><g class="node default" id="my-svg-flowchart-Q5_YES-10" data-look="classic" transform="translate(613.046875, 1364.6875)"><rect class="basic label-container" style="fill:#E65100 !important;stroke:#BF4400 !important" x="-105.1875" y="-46.5" width="210.375" height="93"/><g class="label" style="color:#fff !important" transform="translate(-75.1875, -31.5)"><rect/><foreignObject width="150.375" height="63"><div style="color: rgb(255, 255, 255) !important; display: table-cell; white-space: nowrap; line-height: 1.5; max-width: 200px; text-align: center;" xmlns="http://www.w3.org/1999/xhtml"><span style="color:#fff !important" class="nodeLabel"><p>Root cause:<br />Systematic quality issue<br />affecting many queries</p></span></div></foreignObject></g></g><g class="node default" id="my-svg-flowchart-Q6-11" data-look="classic" transform="translate(887.2421875, 1364.6875)"><rect class="basic label-container" style="fill:#6C757D !important;stroke:#495057 !important" x="-119.0078125" y="-46.5" width="238.015625" height="93"/><g class="label" style="color:#fff !important" transform="translate(-89.0078125, -31.5)"><rect/><foreignObject width="178.015625" height="63"><div style="color: rgb(255, 255, 255) !important; display: table-cell; white-space: nowrap; line-height: 1.5; max-width: 200px; text-align: center;" xmlns="http://www.w3.org/1999/xhtml"><span style="color:#fff !important" class="nodeLabel"><p>Root cause:<br />Check model version change<br />or prompt regression</p></span></div></foreignObject></g></g></g></g></g><defs><filter id="my-svg-drop-shadow" height="130%" width="130%"><feDropShadow dx="4" dy="4" stdDeviation="0" flood-opacity="0.06" flood-color="#000000"/></filter></defs><defs><filter id="my-svg-drop-shadow-small" height="150%" width="150%"><feDropShadow dx="2" dy="2" stdDeviation="0" flood-opacity="0.06" flood-color="#000000"/></filter></defs></svg>